<?xml version="1.0" encoding="utf-8"?>
<!-- Generator: Adobe Illustrator 23.0.0, SVG Export Plug-In . SVG Version: 6.00 Build 0)  -->
<svg version="1.1" id="Capa_1" xmlns="http://www.w3.org/2000/svg" xmlns:xlink="http://www.w3.org/1999/xlink" x="0px" y="0px"
	 viewBox="0 0 500 300" style="enable-background:new 0 0 500 300;" xml:space="preserve">
<style type="text/css">
	.st0{fill:#4E2600;}
	.st1{fill:#EE3738;}
</style>
<path class="st0" d="M185.81,242.4c-0.59-0.56-0.82-1.31-1.16-2c-2.93-6.11-5.85-12.23-8.78-18.35
	c-7.58-15.85-15.16-31.69-22.73-47.54c-0.83-1.74-1.71-3.45-2.79-5.06c-3.03-4.53-7.02-7.94-11.94-10.27
	c-3.23-1.53-6.63-2.49-10.12-3.13c-2.73-0.5-5.51-0.66-8.27-0.85c-0.61-0.04-1.23,0.01-1.84,0.03c-0.28,0.01-0.59,0.31-0.63,0.58
	c-0.03,0.23-0.07,0.46-0.08,0.69c-0.01,0.54-0.01,1.08-0.01,1.62c0,20.81,0,41.62,0,62.44c0,1.78,0.01,3.55,0.5,5.28
	c0.17,0.59,0.32,1.19,0.52,1.77c1.09,3.07,3.15,5.25,6.12,6.56c1.7,0.75,3.5,1.2,5.34,1.44c1.6,0.21,3.22,0.33,4.82,0.53
	c1.07,0.13,2.14,0.28,3.19,0.51c0.59,0.13,1.16,0.41,1.69,0.71c0.32,0.18,0.62,0.47,0.82,0.79c0.89,1.4,0.18,3.66-1.33,4.33
	c-0.57,0.25-1.15,0.45-1.78,0.48c-0.77,0.03-1.54,0.1-2.31,0.09c-7.71-0.09-15.42-0.1-23.12-0.31c-9.02-0.25-18.03-0.32-27.05-0.05
	c-8.09,0.24-16.18,0.29-24.27,0.36c-1,0.01-2-0.06-3-0.09c-0.71-0.03-1.37-0.25-1.98-0.58c-0.79-0.42-1.29-1.08-1.41-2
	c-0.25-1.89,0.35-2.95,2.19-3.51c1.17-0.35,2.4-0.54,3.62-0.71c1.6-0.22,3.22-0.34,4.82-0.53c1.54-0.18,3.04-0.53,4.49-1.05
	c4.01-1.41,6.53-4.2,7.61-8.32c0.43-1.66,0.55-3.34,0.62-5.04c0.03-0.69,0.01-1.39,0.01-2.08c0-46.09,0-92.19-0.01-138.28
	c0-1.54-0.09-3.08-0.18-4.62c-0.08-1.32-0.43-2.58-0.87-3.82c-1.14-3.15-3.27-5.35-6.35-6.64c-1.72-0.72-3.51-1.15-5.35-1.38
	c-1.61-0.2-3.22-0.33-4.82-0.52c-0.99-0.12-1.99-0.27-2.96-0.5c-0.59-0.14-1.17-0.4-1.69-0.71c-0.7-0.41-1.11-1.06-1.15-1.89
	c-0.02-0.38,0-0.77,0.04-1.15c0.11-0.92,0.64-1.56,1.43-1.98c0.62-0.32,1.28-0.54,1.98-0.58c0.69-0.03,1.39-0.09,2.08-0.09
	c6.94,0.07,13.87,0.05,20.81,0.24c6.09,0.17,12.17,0.3,18.26,0.28c5.93-0.01,11.87-0.07,17.8-0.29c4.31-0.16,8.63-0.16,12.95-0.18
	c5.24-0.03,10.48-0.04,15.72,0c3.93,0.03,7.84,0.4,11.75,0.84c4.52,0.51,8.99,1.31,13.41,2.41c6.31,1.57,12.37,3.78,18.07,6.94
	c4.48,2.48,8.56,5.47,12.14,9.15c5.93,6.08,9.68,13.29,11.14,21.66c0.76,4.35,0.81,8.73,0.3,13.13c-0.32,2.77-0.88,5.47-1.77,8.11
	c-1.92,5.67-5.18,10.47-9.56,14.52c-2.73,2.52-5.76,4.64-8.98,6.48c-4.37,2.49-8.98,4.43-13.73,6.03
	c-5.12,1.73-10.34,3.06-15.62,4.15c-4.23,0.88-8.49,1.55-12.75,2.18c-1.9,0.28-3.82,0.45-5.74,0.68c-0.46,0.05-0.93,0.07-1.31,0.37
	c-0.05,0.04-0.05,0.14-0.05,0.21c0,0.06,0.03,0.16,0.06,0.16c0.3,0.05,0.6,0.11,0.91,0.11c1.31,0.03,2.62,0.02,3.93,0.06
	c5.63,0.18,11.23,0.7,16.75,1.85c3.17,0.66,6.28,1.55,9.3,2.73c7.12,2.78,13.09,7.14,17.87,13.11c2.42,3.02,4.47,6.27,6.24,9.7
	c2.59,4.99,5.18,9.98,7.76,14.98c4.07,7.87,8.13,15.74,12.2,23.61c0.85,1.64,1.73,3.27,2.77,4.8c0.96,1.4,2.01,2.73,3.18,3.96
	c3.3,3.44,7.3,5.62,11.93,6.66c1.96,0.44,3.95,0.68,5.93,0.92c0.99,0.12,1.98,0.3,2.97,0.46c0.3,0.05,0.6,0.15,0.88,0.26
	c1.45,0.55,2.11,1.4,2.08,3.21c0,0.15-0.04,0.31-0.06,0.46c-0.21,1.43-0.83,1.99-2.3,2.09c-0.46,0.03-0.92,0.04-1.39,0.03
	c-5.16-0.09-10.33-0.13-15.49-0.29c-4.55-0.15-9.09-0.24-13.64-0.24c-8.71-0.02-17.42,0-26.13-0.01
	C187.48,242.51,186.63,242.59,185.81,242.4z M117.46,106.76c0,13.41,0,26.82,0,40.23c0,0.69,0,1.39,0.01,2.08
	c0,0.23,0.01,0.47,0.1,0.68c0.08,0.19,0.25,0.4,0.43,0.49c0.19,0.1,0.45,0.11,0.67,0.11c4.39-0.02,8.78,0.1,13.17-0.13
	c3.31-0.18,6.61-0.47,9.87-1.1c4.26-0.83,8.36-2.12,12.2-4.16c4.87-2.58,8.83-6.14,11.84-10.76c2.04-3.13,3.48-6.51,4.54-10.08
	c1.43-4.83,2.02-9.8,2.25-14.82c0.24-5.1-0.06-10.17-0.88-15.21c-0.61-3.81-1.62-7.52-3.17-11.08c-1.52-3.49-3.52-6.68-6.15-9.44
	c-3.81-4.01-8.45-6.65-13.72-8.22c-4.16-1.24-8.42-1.84-12.76-1.86c-5.32-0.02-10.64-0.01-15.95-0.01c-0.39,0-0.77,0-1.16,0.01
	c-1.1,0.03-1.28,0.22-1.3,1.41c-0.02,0.69-0.01,1.39-0.01,2.08C117.46,80.25,117.46,93.5,117.46,106.76z"/>
<path class="st0" d="M351.55,57.58c5.7-0.13,11.4-0.28,17.1-0.38c7.09-0.13,14.18-0.25,21.27-0.16c4.32,0.06,8.62,0.38,12.91,0.85
	c4.06,0.45,8.09,1.1,12.08,1.99c7.56,1.68,14.83,4.15,21.64,7.88c5.45,2.98,10.38,6.64,14.56,11.26
	c5.17,5.72,8.69,12.31,10.32,19.86c0.83,3.86,1.17,7.76,0.96,11.71c-0.17,3-0.46,5.98-1.09,8.94c-2.18,10.29-7.41,18.67-15.62,25.2
	c-4.5,3.58-9.51,6.27-14.84,8.39c-4.66,1.86-9.47,3.23-14.39,4.24c-4.45,0.91-8.94,1.58-13.48,2c-5.45,0.5-10.91,0.78-16.39,0.78
	c-6.01,0-12.02,0-18.04,0c-2.18,0-2.19-0.02-2.19,2.14c0,5.63,0,11.25,0,16.88c0,13.64,0,27.28,0,40.93c0,1.85,0,3.71,0.49,5.51
	c0.26,0.96,0.54,1.93,0.92,2.85c1,2.36,2.67,4.11,4.93,5.31c1.93,1.03,4.02,1.55,6.16,1.85c1.6,0.22,3.22,0.34,4.82,0.53
	c0.99,0.12,1.99,0.25,2.97,0.46c0.6,0.13,1.18,0.36,1.73,0.62c0.74,0.35,1.17,0.97,1.35,1.77c0.35,1.55-0.39,2.97-1.83,3.57
	c-0.73,0.3-1.48,0.43-2.25,0.44c-1.54,0.03-3.08,0.06-4.62,0.05c-5.63-0.06-11.25-0.12-16.88-0.21c-3.47-0.06-6.93-0.2-10.4-0.26
	c-6.7-0.11-13.41-0.12-20.11,0.11c-8.17,0.28-16.33,0.29-24.5,0.37c-0.85,0.01-1.69-0.05-2.54-0.09c-0.63-0.02-1.21-0.22-1.78-0.47
	c-1.09-0.48-1.66-1.33-1.73-2.52c-0.01-0.15,0-0.31-0.01-0.46c-0.01-1.03,0.47-1.8,1.34-2.26c0.6-0.32,1.28-0.56,1.95-0.68
	c1.21-0.23,2.44-0.37,3.66-0.5c2.07-0.22,4.14-0.43,6.17-0.89c1.36-0.31,2.66-0.77,3.9-1.4c2.2-1.13,3.83-2.82,4.88-5.06
	c0.56-1.19,0.98-2.44,1.17-3.74c0.24-1.6,0.45-3.21,0.41-4.83c-0.01-0.39,0-0.77,0-1.16c0-46.01,0-92.03,0.01-138.04
	c0-1.85-0.1-3.7-0.36-5.53c-0.19-1.31-0.55-2.56-1.08-3.77c-1.06-2.41-2.76-4.24-5.12-5.44c-1.95-0.99-4.04-1.51-6.18-1.8
	c-1.6-0.22-3.22-0.34-4.82-0.53c-0.99-0.12-1.98-0.29-2.97-0.47c-0.37-0.07-0.74-0.22-1.09-0.36c-1.43-0.58-1.99-1.52-1.86-3.08
	c0.1-1.19,0.69-2.04,1.81-2.45c0.57-0.21,1.18-0.37,1.78-0.44c0.76-0.09,1.54-0.1,2.31-0.09c6.78,0.07,13.57,0.05,20.34,0.24
	c6.16,0.17,12.33,0.26,18.49,0.3c1.23,0.01,2.47,0,3.7,0C351.55,57.55,351.55,57.57,351.55,57.58z M366.36,108.45
	c0,13.95,0,27.9,0,41.84c0,0.69,0,1.39,0.01,2.08c0.01,0.23,0.06,0.45,0.11,0.68c0.05,0.26,0.27,0.42,0.47,0.44
	c0.61,0.07,1.23,0.11,1.84,0.11c3.7,0.01,7.4,0,11.1,0.01c3.94,0.01,7.85-0.22,11.75-0.81c3.51-0.53,6.94-1.42,10.23-2.79
	c6.96-2.91,12.16-7.72,15.55-14.48c1.11-2.21,1.99-4.51,2.69-6.88c1.35-4.61,2.04-9.32,2.33-14.1c0.11-1.84,0.13-3.7,0.15-5.54
	c0.07-4.71-0.18-9.39-1.05-14.03c-0.75-4.03-1.9-7.93-3.68-11.64c-2.52-5.25-6.08-9.61-10.9-12.92c-2.56-1.75-5.31-3.12-8.23-4.15
	c-5.36-1.89-10.9-2.69-16.56-2.76c-4.31-0.05-8.63-0.02-12.95-0.01c-3.1,0.01-2.84-0.25-2.85,2.88
	C366.36,80.4,366.36,94.43,366.36,108.45z"/>
<path class="st1" d="M266.56,214.29c-7.6-0.17-13.44-3.43-17.31-10.01c-1.71-2.9-2.44-6.1-2.52-9.48
	c-0.2-8.47,5.65-17.36,15.56-19.51c10.22-2.22,20.06,3.66,23.03,13.44c1.9,6.28,0.93,12.2-2.87,17.57
	c-2.73,3.86-6.5,6.27-11.07,7.43C269.48,214.21,268.8,214.26,266.56,214.29z"/>
<path class="st1" d="M266.63,138.91c-8.39,0.24-16.72-5.35-19.19-14.32c-3.04-11.06,3.74-21.84,14.06-24.43
	c11.55-2.89,21.58,4.18,24.11,14.22c2.05,8.14-1.22,16.79-8.04,21.28C274.22,137.88,270.52,139.01,266.63,138.91z"/>
<g>
</g>
<g>
</g>
<g>
</g>
<g>
</g>
<g>
</g>
<g>
</g>
<g>
</g>
<g>
</g>
<g>
</g>
<g>
</g>
<g>
</g>
<g>
</g>
<g>
</g>
<g>
</g>
<g>
</g>
</svg>
